<svg width="125" height="104" viewBox="0 0 125 104" fill="none" xmlns="http://www.w3.org/2000/svg">
<path d="M46.9745 103.873H48.7871C49.8602 103.873 50.7426 103.029 50.791 101.957C50.9868 97.624 51.51 87.0286 52.1667 81.5526C53.0049 74.5628 56.4901 65.4132 59.1693 59.6695C61.8484 53.9257 65.3127 47.4904 73.233 38.7429C81.1534 29.9954 89.368 26.8447 89.368 26.8447C89.368 26.8447 80.7121 35.3816 75.8005 41.8712C72.0629 46.8093 68.4859 54.3914 66.9892 57.7342C66.564 58.6839 66.9845 59.7478 67.9973 59.9863C70.469 60.5682 75.6569 61.0919 84.1161 58.7704C96.6218 55.3383 104.064 48.1033 104.064 48.1033C104.064 48.1033 112.549 40.1079 117.816 28.9184C121.965 20.1045 124.104 7.8675 124.825 3.06891C124.993 1.94915 124.186 0.951267 123.054 0.903241C116.422 0.621671 95.2755 0.54365 82.3654 9.92176C66.9013 21.1551 59.1693 37.9322 59.1693 37.9322C59.1693 37.9322 50.8449 54.7093 47.0513 71.6323C44.2366 84.1888 43.9976 95.8619 44.0616 101.05C44.0813 102.639 45.3849 103.873 46.9745 103.873Z" fill="#616748"/>
<path d="M25.4195 22.3685C24.698 23.4713 27.1101 24.8489 27.1101 24.8489C27.1101 24.8489 31.4588 27.9654 37.6194 36.083C41.8646 41.6766 43.3567 45.3577 43.8742 47.106C44.0863 47.8224 43.7397 48.534 43.0325 48.7749C41.0409 49.4533 36.302 50.3163 28.2701 47.5608C17.2136 43.7677 11.7273 36.9889 8.43677 31.6265C5.14622 26.2642 3.26379 20.4841 1.98127 15.1737C1.07305 11.4132 0.353752 5.3352 0.0112576 2.10781C-0.112875 0.938082 0.8055 -0.0571209 1.98028 0.00254808C4.70004 0.140689 9.70412 0.548447 15.5488 1.75205C24.3881 3.57233 31.3054 6.75428 34.4144 8.82697C37.5235 10.8997 44.1428 15.1737 47.0513 22.8615C49.1327 28.3631 48.9123 36.174 48.6186 40.1716C48.5516 41.0834 47.4052 41.3823 46.8652 40.6445C45.1285 38.2717 42.1799 34.3876 39.5763 31.6618C35.8059 27.7143 33.1962 25.6839 31.6762 24.4865C29.643 22.8847 26.1409 21.2657 25.4195 22.3685Z" fill="#616748"/>
</svg>
